<svg width="20" height="20" viewBox="0 0 20 20" fill="none" xmlns="http://www.w3.org/2000/svg">
<path fill-rule="evenodd" clip-rule="evenodd" d="M7.08334 0.833344C6.08878 0.833344 5.13495 1.22843 4.43169 1.93169C3.72843 2.63495 3.33334 3.58878 3.33334 4.58334C3.33334 5.57791 3.72843 6.53173 4.43169 7.23499C4.5256 7.3289 4.62396 7.4173 4.7263 7.50001C4.62396 7.58272 4.5256 7.67112 4.43169 7.76503C3.72843 8.46829 3.33334 9.42211 3.33334 10.4167C3.33334 11.4112 3.72843 12.3651 4.43169 13.0683C4.5256 13.1622 4.62397 13.2506 4.7263 13.3333C4.62397 13.416 4.5256 13.5045 4.43169 13.5984C3.72843 14.3016 3.33334 15.2554 3.33334 16.25C3.33334 17.2446 3.72843 18.1984 4.43169 18.9017C5.13495 19.6049 6.08878 20 7.08334 20C8.0779 20 9.03173 19.6049 9.73499 18.9017C10.4383 18.1984 10.8333 17.2446 10.8333 16.25V13.5347C11.0371 13.6708 11.2541 13.787 11.4816 13.8812C11.9366 14.0697 12.4242 14.1667 12.9167 14.1667C13.4091 14.1667 13.8968 14.0697 14.3517 13.8812C14.8067 13.6928 15.2201 13.4165 15.5683 13.0683C15.9165 12.7201 16.1928 12.3067 16.3812 11.8517C16.5697 11.3968 16.6667 10.9091 16.6667 10.4167C16.6667 9.92422 16.5697 9.43658 16.3812 8.98161C16.1928 8.52665 15.9165 8.11325 15.5683 7.76503C15.4747 7.67138 15.3763 7.58294 15.2737 7.50001C15.3763 7.41709 15.4747 7.32864 15.5683 7.23499C15.9165 6.88677 16.1928 6.47338 16.3812 6.01841C16.5697 5.56344 16.6667 5.0758 16.6667 4.58334C16.6667 4.09089 16.5697 3.60325 16.3812 3.14828C16.1928 2.69331 15.9165 2.27991 15.5683 1.93169C15.2201 1.58347 14.8067 1.30725 14.3517 1.1188C13.8968 0.93034 13.4091 0.833344 12.9167 0.833344H10H7.08334ZM7.08334 2.50001C6.53081 2.50001 6.00091 2.7195 5.6102 3.1102C5.2195 3.50091 5.00001 4.03081 5.00001 4.58334C5.00001 5.13588 5.2195 5.66578 5.6102 6.05648C6.00091 6.44718 6.53081 6.66668 7.08334 6.66668H9.16668V2.50001H7.08334ZM10.8333 2.50001V6.66668H12.9167C13.1903 6.66668 13.4612 6.61279 13.7139 6.50809C13.9667 6.4034 14.1964 6.24994 14.3898 6.05648C14.5833 5.86303 14.7367 5.63336 14.8414 5.3806C14.9461 5.12784 15 4.85693 15 4.58334C15 4.30976 14.9461 4.03885 14.8414 3.78609C14.7367 3.53332 14.5833 3.30366 14.3898 3.1102C14.1964 2.91675 13.9667 2.76329 13.7139 2.65859C13.4612 2.5539 13.1903 2.50001 12.9167 2.50001H10.8333ZM12.9167 8.33334C12.6431 8.33334 12.3722 8.38723 12.1194 8.49193C11.8667 8.59662 11.637 8.75008 11.4435 8.94354C11.2501 9.13699 11.0966 9.36666 10.9919 9.61942C10.8872 9.87218 10.8333 10.1431 10.8333 10.4167C10.8333 10.6903 10.8872 10.9612 10.9919 11.2139C11.0966 11.4667 11.2501 11.6964 11.4435 11.8898C11.637 12.0833 11.8667 12.2367 12.1194 12.3414C12.3722 12.4461 12.6431 12.5 12.9167 12.5C13.1903 12.5 13.4612 12.4461 13.7139 12.3414C13.9667 12.2367 14.1964 12.0833 14.3898 11.8898C14.5833 11.6964 14.7367 11.4667 14.8414 11.2139C14.9461 10.9612 15 10.6903 15 10.4167C15 10.1431 14.9461 9.87218 14.8414 9.61942C14.7367 9.36666 14.5833 9.13699 14.3898 8.94354C14.1964 8.75008 13.9667 8.59662 13.7139 8.49193C13.4612 8.38723 13.1903 8.33334 12.9167 8.33334ZM7.08334 14.1667C6.53081 14.1667 6.0009 14.3862 5.6102 14.7769C5.2195 15.1676 5.00001 15.6975 5.00001 16.25C5.00001 16.8025 5.2195 17.3324 5.6102 17.7232C6.0009 18.1139 6.53081 18.3333 7.08334 18.3333C7.63588 18.3333 8.16578 18.1139 8.55648 17.7232C8.94718 17.3324 9.16668 16.8025 9.16668 16.25V14.1667H7.08334ZM7.08334 8.33334C6.53081 8.33334 6.00091 8.55284 5.6102 8.94354C5.2195 9.33424 5.00001 9.86414 5.00001 10.4167C5.00001 10.9692 5.2195 11.4991 5.6102 11.8898C6.00091 12.2805 6.53081 12.5 7.08334 12.5H9.16668V10.4167V8.33334H7.08334Z" fill="black"/>
</svg>
